<svg
        width="273"
        height="222"
        viewBox="0 0 273 222"
        fill="none"
        xmlns="http://www.w3.org/2000/svg"
      >
        <path
          d="M272.863 0.369224C271.823 2.07268 270.421 3.49084 269.255 5.10198C265.974 9.65012 261.593 12.9815 257.07 16.1534C255.468 17.2779 254.326 18.7296 254.184 20.7771C254.133 21.4988 253.554 21.8428 253.085 22.2288C249.812 24.8973 246.481 27.4986 243.241 30.209C238.056 34.5474 233.247 39.2466 229.673 45.0702C228.07 47.6883 225.586 49.4337 223.211 51.2714C221.659 52.4714 221.659 52.4714 222.758 54.0406C227.591 60.9719 231.46 68.3983 234.321 76.3449C234.565 77.0247 234.716 77.2512 235.404 76.6974C240.8 72.3087 246.506 68.3899 252.598 64.9914C255.417 63.4138 257.993 61.3915 260.696 59.5957C261.61 58.9915 262.533 58.3874 263.75 57.9174C263.188 58.8992 262.458 59.4279 261.795 60.0237C256.903 64.404 251.817 68.5493 246.783 72.7618C245.121 74.1464 243.468 75.5478 241.815 76.9323C241.278 77.3855 240.925 77.9141 241.06 78.6526C241.269 79.8358 240.816 80.7756 239.969 81.5476C239.172 82.2777 238.383 83.0245 237.535 83.6958C237.023 84.0986 236.898 84.5014 237.065 85.1307C238.635 90.904 239.591 96.778 240.028 102.753C240.229 105.513 240.153 108.266 240.204 111.027C240.212 111.287 240.036 111.656 240.313 111.799C240.648 111.966 240.858 111.589 241.093 111.413C246.204 107.469 251.389 103.625 256.802 100.101C257.02 99.9583 257.205 99.715 257.733 99.7569C255.98 101.435 254.352 103.03 252.69 104.582C250.03 107.049 247.32 109.474 244.66 111.95C243.527 113.007 242.251 113.846 240.959 114.685C240.388 115.054 240.137 115.482 240.095 116.196C238.819 135.034 232.744 152.195 221.608 167.442C209.256 184.359 193.136 196.292 173.249 203.013C161.442 206.999 149.308 208.61 136.855 207.93C132.702 207.704 128.59 207.184 124.495 206.445C124.008 206.361 123.639 206.47 123.236 206.756C121.843 207.737 120.4 208.661 119.007 209.659C118.302 210.163 117.572 210.44 116.699 210.498C111.27 210.826 106.403 212.747 101.846 215.634C99.0185 217.421 96.0731 219.024 93.1781 220.694C92.9935 220.803 92.8005 221.13 92.5068 220.82L92.5403 220.836C97.0633 217.22 101.578 213.586 106.646 210.742C110.045 208.837 113.477 206.974 116.934 204.817C115.264 204.314 113.729 203.877 112.201 203.391C103.751 200.68 95.8298 196.871 88.4369 191.97C87.8915 191.609 87.5223 191.618 86.9684 191.945C79.5588 196.334 72.1912 200.789 64.4963 204.666C64.1103 204.859 63.8082 205.128 63.5313 205.447C61.2992 208.048 58.5048 209.751 55.1483 210.431C51.7581 211.111 48.6449 212.453 45.6156 214.065C42.6954 215.617 39.7249 217.077 36.3935 217.623C51.0617 206.974 66.3256 197.206 81.2875 186.818C78.9631 184.955 76.7645 183.042 74.6583 181.019C69.1367 175.741 64.2361 169.934 60.0908 163.506C59.6377 162.81 59.3104 162.642 58.5887 163.179C56.0629 165.059 53.1259 166.25 50.4575 167.912C48.9638 168.843 47.5624 169.917 46.6142 171.411C45.7331 172.804 44.4828 173.35 42.9472 173.475C40.3458 173.685 38.0886 174.675 36.1837 176.446C34.5977 177.923 33.0621 179.442 31.4593 180.893C30.4272 181.825 29.2524 182.454 27.7671 182.278C26.9364 182.177 26.1392 182.496 25.5098 182.974C22.6652 185.114 19.359 186.365 16.187 187.883C11.0011 190.376 5.97468 193.17 1.04892 196.149C0.797183 196.3 0.528658 196.443 0 196.736C0.604181 195.562 1.31745 194.873 2.08106 194.244C4.56492 192.197 7.25855 190.46 9.98576 188.756C13.4514 186.6 16.9255 184.46 20.3575 182.244C23.3281 180.331 26.0217 178.183 28.1783 175.254C31.5433 170.689 36.2676 167.627 41.0339 164.673C45.5737 161.862 50.2896 159.369 54.8965 156.693C55.5259 156.323 55.6517 156.063 55.2825 155.367C50.7344 146.698 47.4953 137.569 45.7331 127.935C45.5233 126.769 45.3387 125.594 45.1793 124.419C45.0954 123.798 44.9443 123.63 44.273 123.907C40.4214 125.502 37.1487 128.002 33.8677 130.478C31.7111 132.097 29.7391 133.918 27.9182 135.907C27.6161 136.243 27.272 136.553 26.886 136.788C23.8064 138.71 20.668 140.514 17.3954 142.083C17.1772 142.192 16.9674 142.318 16.6989 142.259L16.7157 142.285C16.7996 141.554 17.3702 141.127 17.7982 140.631C22.8917 134.648 28.8496 129.572 34.8495 124.545C37.7109 122.145 40.5808 119.754 43.5178 117.446C44.3401 116.8 44.3318 116.103 44.2311 115.247C44.1891 114.87 44.0297 114.778 43.694 114.803C43.5597 114.811 43.4171 114.803 43.2744 114.794C42.6954 114.752 41.9738 114.618 41.8815 114.073C41.7808 113.477 42.5696 113.317 43.0227 113.242C44.0464 113.066 44.1975 112.503 44.1723 111.589C43.8618 100.772 45.4814 90.2243 48.796 79.9532C52.6141 68.113 58.5468 57.3972 66.4599 47.789C76.303 35.8313 88.3027 26.6847 102.417 20.3324C111.119 16.422 120.232 13.9046 129.706 12.7046C143.115 11.0179 156.323 12.0081 169.305 15.7507C171.067 16.2625 172.435 16.2038 173.962 15.2052C176.882 13.3088 180.323 12.5871 183.486 11.2277C189.067 8.83615 194.387 5.91594 199.766 3.1216C201.293 2.33281 201.721 2.36637 202.812 3.64186C203.298 4.21248 203.852 4.40549 204.574 4.25445C206.949 3.76774 208.929 2.44189 211.002 1.30906C211.933 0.797181 212.848 0.243351 213.93 0C212.949 1.3678 211.723 2.47546 210.423 3.5076C208.367 5.13553 206.051 6.36907 203.852 7.78722C199.01 10.9088 194.521 14.5255 189.822 17.8485C188.429 18.8303 186.96 19.7282 185.593 20.7352C184.602 21.4652 184.653 21.5827 185.735 22.1113C196.334 27.3476 205.648 34.3124 213.737 42.9136C214.308 43.5262 214.635 43.4675 215.248 43.0479C230.831 32.1978 246.279 21.1631 261.3 9.54942C264.262 7.25856 266.964 4.68241 269.909 2.37478C270.841 1.64473 271.806 0.948235 272.754 0.243358C272.779 0.276923 272.821 0.327267 272.863 0.369224ZM72.98 62.0712C72.1492 68.9521 73.3576 75.3044 77.5869 80.9015C78.0232 81.4805 77.8218 81.9336 77.6456 82.4455C73.6093 94.5711 72.3338 106.957 74.1464 119.619C75.1869 126.895 77.1253 133.935 81.2875 140.078C83.1671 142.855 84.5014 145.767 85.6846 148.855C88.8062 157.003 94.2438 163.506 100.789 169.129C107.015 174.474 114.006 178.695 121.147 182.664C127.541 186.222 134.145 189.411 140.271 193.447C140.573 193.648 140.967 193.766 141.135 194.152C140.178 194.395 131.77 200.328 130.981 201.31C184.72 207.729 228.926 167.778 233.575 120.224C232.047 121.365 230.554 122.38 229.245 123.63C226.35 126.383 224.218 129.437 225.267 133.809C224.931 133.641 224.722 133.532 224.495 133.432C223.295 132.886 223.262 132.92 222.876 134.17C219.175 146.38 213.058 157.238 204.465 166.67C194.152 177.982 181.632 185.895 167.031 190.468C159.453 192.843 151.675 193.976 143.753 194.227C143.401 194.236 143.048 194.227 142.419 194.227C143.14 193.724 143.594 193.405 144.055 193.094C149.342 189.57 154.997 186.675 160.519 183.545C167.836 179.391 175.036 175.053 181.439 169.531C189.209 162.835 195.184 154.914 198.238 145.003C198.549 143.996 199.052 143.208 199.782 142.461C203.861 138.273 206.823 133.39 208.711 127.86C211.597 119.418 211.547 110.783 210.263 102.09C209.323 95.6871 207.645 89.4691 205.531 83.3601C205.296 82.6721 205.438 82.2273 205.833 81.6567C209.332 76.6302 211.732 71.2262 211.413 64.9242C211.363 63.9508 211.253 62.9774 211.17 61.9957C216.699 69.5731 220.559 77.9141 223.22 86.9097C225.225 85.1979 227.088 83.57 229.001 81.9924C229.513 81.5644 229.589 81.1868 229.379 80.5742C226.484 72.1073 222.481 64.211 217.304 56.9105C216.876 56.3063 216.599 56.2727 216.011 56.6755C214.283 57.8503 212.512 58.9496 210.7 60.116C209.6 56.3399 207.813 53.1175 204.943 50.5582C204.423 50.0966 204.893 49.9204 205.128 49.6687C206.026 48.6869 207.133 47.831 206.94 46.287C207.427 46.245 207.855 46.2114 208.409 46.1695C208.115 45.8422 207.939 45.6324 207.746 45.4394C200.236 37.8536 191.626 31.8118 182.077 27.0539C180.482 26.2567 179.358 26.156 177.898 27.3056C176.11 28.7154 174.088 29.823 172.024 31.1573C181.355 34.7572 189.679 39.7081 197.248 46.2114C196.954 46.2114 196.812 46.2366 196.686 46.2114C192.331 45.0618 188.11 45.6492 183.965 47.21C179.517 48.8883 175.691 51.5232 172.326 54.8462C171.78 55.3832 171.461 55.5594 170.731 55.0392C167.828 53.0168 164.656 51.54 161.316 50.34C157.146 48.838 153.269 49.2072 149.501 51.5316C146.959 53.1008 144.651 54.9469 142.536 57.0363C142.058 57.5063 141.815 57.5231 141.328 57.0531C139.129 54.8965 136.788 52.8994 134.095 51.3805C131.334 49.8281 128.439 48.8547 125.183 49.6351C120.752 50.6924 116.699 52.5721 112.948 55.1231C112.411 55.4923 112.151 55.5343 111.664 55.0392C109.281 52.6057 106.604 50.5498 103.6 48.9219C99.0521 46.4548 94.2606 45.087 89.0243 45.8086C88.5376 45.8758 88.0509 45.9597 87.4216 46.0604C87.5894 45.8422 87.6398 45.7499 87.7069 45.6912C88.0761 45.3639 88.4369 45.0366 88.8146 44.7345C100.16 35.5544 112.982 29.6049 127.373 27.0455C136.88 25.3504 146.396 25.2413 155.921 26.9112C156.583 27.0287 157.104 26.9112 157.649 26.4833C159.839 24.7462 162.071 23.068 164.278 21.3645C164.455 21.2303 164.732 21.1631 164.706 20.7939C164.589 20.7603 164.463 20.71 164.337 20.6764C158.455 19.2667 152.497 18.3772 146.447 18.0751C137.736 17.6387 129.152 18.4359 120.677 20.475C104.767 24.3099 90.8033 31.8202 78.9463 43.0814C65.4949 55.8615 56.5832 71.2933 52.4295 89.4271C50.877 96.2242 50.105 103.114 50.1302 110.087C50.1386 111.396 50.1554 111.421 51.3302 110.775C52.8322 109.952 54.1916 108.946 55.5091 107.838C57.3552 106.285 58.1104 104.515 58.3118 102.039C59.1929 91.29 62.2558 81.1113 67.1815 71.5115C68.9018 68.2389 70.7982 65.0837 72.98 62.0712ZM58.0181 114.308C57.2293 115.046 56.4993 115.633 55.8783 116.322C54.5944 117.748 53.3861 119.267 51.6994 120.24C50.9274 120.685 50.7763 121.214 50.8938 122.019C51.7917 128.531 53.2686 134.892 55.5091 141.076C56.9776 145.138 58.6978 149.09 60.8041 152.958C62.7509 151.574 64.6389 150.198 66.569 148.889C67.148 148.494 67.0976 148.175 66.8207 147.63C63.5397 141.093 61.1649 134.229 59.6712 127.071C58.8069 122.909 58.2782 118.688 58.0181 114.308ZM93.262 187.833C93.3459 187.925 93.4046 188.018 93.4886 188.068C102.761 193.875 112.764 197.878 123.471 200.101C124.008 200.21 124.411 200.034 124.814 199.732C126.702 198.297 128.607 196.879 130.486 195.444C131.166 194.924 131.812 194.353 132.618 193.69C128.951 193.237 125.535 192.633 122.154 191.819C114.417 189.956 107.116 186.994 100.235 183.008C99.4716 182.563 98.9933 182.597 98.364 183.184C96.7025 184.77 94.9738 186.289 93.262 187.833ZM85.5503 181.271C88.8901 181.472 90.174 180.65 91.1306 178.024C91.3655 177.377 91.2313 177.059 90.7026 176.656C87.6733 174.348 84.837 171.805 82.1602 169.095C78.468 165.361 75.1869 161.283 72.2499 156.936C71.9227 156.449 71.7129 156.273 71.1423 156.659C69.4136 157.851 67.4584 158.631 65.562 159.512C64.8823 159.831 64.9158 160.049 65.2935 160.62C70.0598 167.786 75.682 174.189 82.2021 179.828C83.2678 180.759 84.2832 181.581 85.5503 181.271ZM231.695 88.7894C229.463 90.6523 227.398 92.5823 225.385 94.5543C225.091 94.848 225.082 95.1249 225.158 95.4941C226.4 101.838 226.442 108.249 226.308 114.677C226.282 115.877 226.014 117.077 226.131 118.386C226.534 118.176 226.87 118.008 227.197 117.824C229.169 116.708 231.133 115.575 233.256 114.778C233.902 114.534 234.145 114.232 234.17 113.519C234.422 107.536 234.019 101.595 233.113 95.6787C232.761 93.3963 232.358 91.1138 231.695 88.7894Z"
          fill="#FDD14C"
        />
        <path
          d="M272.737 0.226595C272.821 0.209813 272.955 0.159449 272.972 0.184623C273.048 0.28532 272.955 0.344061 272.863 0.369235C272.821 0.327278 272.779 0.276944 272.737 0.226595Z"
          fill="#FDD14C"
        />
        <path
          d="M16.6989 142.251C16.6569 142.276 16.6234 142.31 16.5814 142.335C16.5814 142.31 16.5814 142.276 16.5814 142.251C16.6234 142.259 16.6653 142.268 16.7073 142.276C16.7157 142.276 16.6989 142.251 16.6989 142.251Z"
          fill="#FDD14C"
        />
        <path
          d="M92.4984 220.811C92.5991 220.845 92.6494 220.904 92.5823 221.004C92.5739 221.021 92.5068 221.029 92.49 221.021C92.3977 220.937 92.4648 220.878 92.5403 220.828C92.5319 220.828 92.4984 220.811 92.4984 220.811Z"
          fill="#FDD14C"
        />
        <path
          d="M115.952 167.358C112.109 164.891 109.013 161.635 106.243 158.06C101.158 151.482 97.2815 144.282 95.2088 136.176C94.848 134.757 94.6214 133.306 94.4704 131.846C94.4368 131.552 94.5794 131.141 94.2186 131.007C93.8326 130.864 93.5893 131.225 93.3459 131.46C91.9865 132.785 90.946 134.363 89.8383 135.882C89.7376 136.025 89.6369 136.167 89.511 136.343C88.8313 135.689 88.4957 134.841 88.1516 134.011C86.1545 129.211 85.1139 124.159 84.4091 119.04C83.6287 113.343 83.4357 107.628 83.9727 101.905C84.9629 91.3152 88.1348 81.5812 95.3263 73.4583C96.929 71.6458 98.6577 69.9675 100.596 68.5242C101.293 68.0039 101.259 67.7018 100.688 67.1312C98.4814 64.9159 96.0815 63.0865 92.8928 62.5495C88.2775 61.7775 82.6301 65.3522 82.9154 70.6975C82.9238 70.7898 82.8902 70.8905 82.8483 71.2346C81.8917 69.2374 81.4469 67.3326 81.2959 65.369C81.0357 62.004 81.7574 58.8908 84.1322 56.365C86.1629 54.2 88.8062 53.3945 91.7012 53.3525C98.0535 53.2518 103.34 55.8112 107.947 59.9985C108.954 60.9132 109.961 61.8446 110.758 62.9607C111.127 63.4809 111.404 63.4725 111.933 63.1537C115.247 61.1397 118.721 59.495 122.422 58.2783C127.927 56.4741 132.693 58.7901 135.857 62.5747C136.855 63.7662 136.797 63.7914 135.689 64.8152C134.195 66.1914 132.819 67.6766 132.022 69.5899C131.51 70.8234 131.443 72.0821 131.77 73.3828C131.921 73.9702 132.03 74.2303 132.676 73.7688C137.401 70.471 142.192 67.2822 146.816 63.8501C148.217 62.8096 149.694 61.8782 151.129 60.8964C153.923 58.9747 156.986 58.7733 160.15 59.6293C165.311 61.0222 169.355 64.211 172.989 67.9535C176.018 71.0751 178.586 74.5576 180.105 78.6945C180.633 80.1378 180.977 81.6315 180.86 83.1923C180.449 83.2595 180.256 82.9574 180.029 82.7811C174.726 78.7449 169.196 78.9715 163.54 81.9336C162.953 82.2357 162.374 82.5798 161.853 82.9825C159.218 84.9713 156.147 85.6594 152.958 86.0118C151.918 86.1293 150.903 85.886 149.862 85.5C149.862 87.1698 150.802 88.3027 151.775 89.3936C153.823 91.6844 156.105 93.7571 158.077 96.1151C162.776 101.729 164.446 108.157 163.406 115.373C162.885 115.357 162.575 114.979 162.222 114.736C157.314 111.404 151.935 109.34 146.019 108.727C145.28 108.652 145.163 108.434 145.364 107.746C145.801 106.277 146.724 105.278 148.024 104.54C149.812 103.533 151.716 102.912 153.747 102.677C154.242 102.618 154.477 102.602 154.301 101.964C153.537 99.2115 152.833 96.4423 151.742 93.7907C150.508 90.7782 148.318 89.2845 145.029 88.9824C142.561 88.7642 140.162 88.8313 137.736 89.1418C135.32 89.4523 133.608 90.7781 132.551 92.9096C131.04 95.9556 130.302 99.2619 129.387 102.576C131.661 102.828 133.776 103.357 135.706 104.49C137.073 105.287 137.98 106.411 138.458 107.905C138.618 108.4 138.525 108.66 137.921 108.719C131.745 109.348 126.165 111.547 121.105 115.113C120.962 115.214 120.811 115.289 120.652 115.373C120.626 115.39 120.584 115.365 120.492 115.34C119.477 108.702 120.794 102.635 124.906 97.2227C127.054 94.4032 129.689 92.0452 132.055 89.4271C133.054 88.3195 134.044 87.1782 134.027 85.6342C129.773 86.4482 125.888 85.7013 122.38 83.2343C119.728 81.3714 116.833 80.2218 113.628 79.7519C111.06 79.3742 108.694 79.9532 106.445 81.0945C104.179 82.2441 102.274 83.872 100.554 85.7349C99.9667 86.3727 100 86.8594 100.63 87.388C101.746 88.3363 102.92 89.2089 103.676 90.518C104.49 91.9194 105.186 93.3963 105.48 94.9571C106.311 99.3458 109.021 102.266 112.613 104.574C114.19 105.589 114.173 105.606 113.334 107.234C109.491 114.668 106.764 122.456 105.899 130.822C105.169 137.946 106.176 144.886 108.182 151.708C109.835 157.347 112.378 162.55 116.087 167.148C116.045 167.224 116.003 167.291 115.952 167.358Z"
          fill="#FDD14C"
        />
        <path
          d="M122.17 137.443C124.168 138.685 125.074 140.581 125.712 142.637C126.895 146.455 126.995 150.399 126.853 154.351C126.786 156.231 126.618 158.111 126.534 159.999C126.492 160.872 126.5 161.744 126.542 162.617C126.677 165.462 128.044 167.467 130.654 168.65C133.171 169.792 135.865 170.236 138.576 170.454C142.981 170.815 147.361 170.597 151.633 169.263C152.572 168.969 153.437 168.533 154.293 168.055C156.542 166.796 157.163 164.648 157.339 162.315C157.515 160.049 157.255 157.783 157.07 155.518C156.709 151.079 156.852 146.656 158.002 142.327C158.32 141.11 158.832 139.96 159.604 138.945C160.141 138.24 160.796 137.703 161.652 137.418C161.853 137.837 161.702 138.156 161.551 138.475C159.353 143.3 158.858 148.385 159.16 153.613C159.336 156.583 159.906 159.487 160.494 162.399C161.241 166.057 159.957 169.213 157.8 172.057C154.679 176.177 150.508 179.022 146.061 181.489C144.995 182.077 143.896 182.605 142.822 183.184C142.285 183.47 141.747 183.528 141.219 183.268C135.697 180.574 130.495 177.436 126.5 172.619C123.337 168.801 122.707 164.614 123.849 159.781C125.418 153.126 125.317 146.422 122.959 139.876C122.682 139.104 122.086 138.433 122.17 137.443Z"
          fill="#FDD14C"
        />
        <path
          d="M188.555 85.3909C189.654 87.195 190.409 88.8733 191.164 90.5348C194.018 96.82 196.048 103.332 197.03 110.187C198.138 117.908 196.728 125.166 193.43 132.139C190.921 137.434 187.674 142.243 183.805 146.64C183.629 146.841 183.503 147.11 182.916 147.11C190.569 127.121 191.55 106.562 188.555 85.3909Z"
          fill="#FDD14C"
        />
        <path
          d="M124.444 120.064C124.084 118.965 124.763 118.268 125.98 117.622C137.006 111.74 147.924 111.849 158.748 118.126C159.067 118.31 159.453 118.428 159.437 118.931C159.344 122.422 159.252 125.913 157.741 129.169C157.372 129.966 156.936 130.713 156.273 131.317C155.157 132.332 154.184 132.081 153.806 130.629C153.344 128.867 153.353 127.037 153.177 125.233C152.984 123.186 152.841 121.13 152.136 119.175C151.7 117.958 150.861 117.295 149.568 117.228C149.065 117.203 148.586 117.27 148.251 117.706C147.714 118.411 147.118 118.26 146.531 117.807C146.203 117.555 145.926 117.228 145.599 116.968C144.945 116.456 144.349 116.372 143.652 117.018C142.436 118.159 141.546 118.142 140.237 117.11C139.188 116.28 138.777 116.313 137.837 117.278C136.771 118.386 136.494 118.403 135.261 117.48C134.405 116.833 132.668 117.387 132.03 118.537C131.544 119.426 131.317 120.417 131.132 121.415C130.662 124 130.646 126.626 130.293 129.219C130.209 129.84 130.092 130.461 129.882 131.048C129.546 131.988 128.8 132.206 127.977 131.627C127.214 131.099 126.727 130.327 126.299 129.521C124.788 126.651 124.621 123.513 124.444 120.064Z"
          fill="#FDD14C"
        />
        <path
          d="M201.024 70.9493C200.982 70.3367 200.982 69.7073 200.882 69.1032C200.328 65.7382 198.146 63.6571 194.336 62.8264C192.213 62.3649 190.057 62.239 187.892 62.1802C184.896 62.0963 181.875 62.4655 178.905 61.9621C175.909 61.4586 176.337 60.8544 177.587 59.0502C178.837 57.2461 180.642 56.1217 182.614 55.2489C186.776 53.4196 191.106 52.9749 195.486 54.1665C201.368 55.7608 204.02 60.267 202.77 66.2249C202.426 67.8696 201.897 69.4472 201.024 70.9493Z"
          fill="#FDD14C"
        />
        <path
          d="M142.276 164.136C138.861 164.085 135.798 163.951 132.785 163.246C131.988 163.062 131.334 162.76 131.082 161.92C130.176 158.866 129.404 155.803 129.882 152.572C129.958 152.061 130.125 151.557 130.293 151.07C130.411 150.71 130.57 150.298 130.998 150.24C131.476 150.172 131.611 150.634 131.804 150.944C132.76 152.564 133.667 154.242 134.254 156.013C135.085 158.53 136.729 159.319 139.222 159.277C141.764 159.235 144.307 159.428 146.841 159.042C147.739 158.908 148.36 158.547 148.763 157.683C149.761 155.535 150.819 153.42 151.876 151.305C152.094 150.869 152.254 150.172 152.883 150.248C153.521 150.324 153.613 151.037 153.772 151.549C154.452 153.789 154.158 156.038 153.73 158.279C153.512 159.403 153.294 160.536 152.916 161.627C152.623 162.483 152.102 162.986 151.179 163.221C148.133 163.985 145.037 164.052 142.276 164.136Z"
          fill="#FDD14C"
        />
        <path
          d="M134.598 145.054C134.59 144.517 134.799 144.089 135.127 143.703C135.857 142.847 136.687 142.1 137.636 141.504C138.668 140.858 138.962 140.959 139.406 142.075C139.599 142.561 139.742 143.065 139.952 143.543C140.111 143.921 140.287 144.315 140.531 144.643C141.555 146.052 142.436 146.027 143.292 144.525C143.753 143.711 144.097 142.83 144.441 141.957C144.794 141.043 145.331 140.9 146.119 141.42C147.152 142.092 148.058 142.897 148.855 143.837C149.3 144.357 149.266 144.945 149.115 145.515C148.427 148.108 147.294 150.475 145.557 152.547C144.022 154.377 140.975 154.763 139.129 153.294C136.536 151.213 135.269 148.259 134.598 145.054Z"
          fill="#FDD14C"
        />
        <path
          d="M121.088 92.4564C120.005 93.7571 118.822 94.848 117.169 95.3011C114.895 95.9137 112.99 95.041 112.017 92.8844C111.211 91.1054 111.32 89.2425 111.555 87.1279C114.35 89.8215 117.505 91.4662 121.088 92.4564Z"
          fill="#FDD14C"
        />
        <path
          d="M171.948 87.1698C172.359 88.781 172.46 90.2998 172.158 91.8103C171.495 95.0829 168.424 96.4675 165.504 94.8396C164.455 94.2606 163.607 93.4466 162.793 92.4648C166.292 91.4662 169.448 89.9642 171.948 87.1698Z"
          fill="#FDD14C"
        />
        <path
          d="M183.084 147.37L183.016 147.403V147.328L183.084 147.37Z"
          fill="#FDD14C"
        />
        <path
          d="M116.095 167.157C116.154 167.232 116.221 167.308 116.28 167.392C116.246 167.425 116.212 167.459 116.179 167.484C116.103 167.442 116.028 167.4 115.952 167.358C116.003 167.291 116.045 167.224 116.095 167.157Z"
          fill="#FDD14C"
        />
        <path
          d="M116.28 167.392C116.38 167.408 116.473 167.442 116.405 167.568C116.397 167.576 116.254 167.517 116.179 167.484C116.212 167.45 116.246 167.425 116.28 167.392Z"
          fill="#FDD14C"
        />
      </svg>
